<?xml version="1.0" encoding="UTF-8" standalone="no"?>
<!DOCTYPE svg PUBLIC "-//W3C//DTD SVG 1.1//EN" "http://www.w3.org/Graphics/SVG/1.1/DTD/svg11.dtd">
<svg width="1645.71" height="822.86" viewBox="0.00 0.00 8000.00 4000.00" xmlns="http://www.w3.org/2000/svg" xmlns:xlink="http://www.w3.org/1999/xlink">
<g stroke-linecap="round" id="Layer_2_2">
<path d="M512.50,435.50 C511.69,434.81 509.44,432.90 509.50,432.50 C509.61,431.64 510.27,431.30 511.50,431.50 C513.35,431.81 514.35,432.48 514.50,433.50 C514.57,433.91 513.90,434.58 512.50,435.50" fill="none" stroke="rgb(255, 128, 155)" stroke-width="3.72" stroke-opacity="1.00" stroke-linejoin="round"/>
<path d="M515.50,449.50 C515.74,449.12 519.08,450.42 519.50,450.50 C520.53,450.72 524.51,449.93 525.63,449.87 C526.99,449.82 527.98,451.22 527.61,452.67 C527.29,453.76 525.20,457.79 524.50,458.50 C523.62,459.40 520.61,461.24 520.50,461.50 C520.24,462.23 521.56,464.87 522.50,465.50 C523.18,465.97 525.71,467.35 525.50,468.50 C525.32,469.40 521.86,473.99 520.94,475.33 C519.48,477.45 519.53,479.90 520.89,481.25 C521.39,481.72 522.66,481.84 522.50,482.50 C522.38,482.90 517.87,482.99 516.50,482.50 C515.21,482.02 512.78,479.43 512.50,478.50 C512.37,477.97 513.60,474.06 514.04,468.26 C514.72,456.36 515.36,449.75 515.50,449.50 Z" fill="none" stroke="rgb(255, 128, 155)" stroke-width="3.72" stroke-opacity="1.00" stroke-linejoin="round"/>
<path d="M601.50,464.50 C602.57,464.13 603.57,464.47 604.50,465.50 C604.80,465.86 603.53,466.03 603.50,466.50 C603.44,467.24 604.63,467.77 604.50,468.50 C604.26,469.65 603.59,469.98 602.50,469.50 C602.04,469.29 601.02,464.68 601.50,464.50 Z" fill="none" stroke="rgb(255, 128, 155)" stroke-width="3.72" stroke-opacity="1.00" stroke-linejoin="round"/>
<path d="M521.50,500.50 C522.39,501.36 522.99,503.11 522.50,504.50 C522.16,505.46 519.27,508.63 517.86,510.16 C516.48,511.76 516.55,513.52 517.96,514.34 C518.77,514.81 519.79,514.90 520.50,515.50 C521.48,516.32 519.46,522.67 519.50,523.50 C519.52,524.26 519.54,526.93 518.50,527.50 C517.71,527.90 507.33,527.62 506.50,527.50 C505.04,527.24 504.39,526.34 503.81,523.80 C503.53,522.47 502.29,517.42 502.15,515.71 C502.03,513.79 503.25,510.58 504.57,509.57 C505.55,508.85 509.21,507.35 509.50,506.50 C509.75,505.66 507.33,503.42 506.54,502.74 C505.42,501.76 503.67,499.35 503.18,498.07 C502.28,495.60 502.71,490.04 503.92,486.74 C504.54,485.04 504.34,482.97 503.50,482.50 C502.43,482.01 499.78,488.26 498.93,492.45 C498.70,493.68 498.23,497.64 498.50,498.50 C498.95,499.98 501.54,504.02 501.50,504.50 C501.38,505.71 498.05,509.51 496.50,510.50 C495.37,511.21 492.62,511.44 492.50,511.50 C491.27,512.14 490.61,512.81 490.50,513.50 C490.40,514.21 492.73,516.26 492.50,517.50 C492.35,518.28 489.73,520.85 488.19,522.03 C486.52,523.25 484.20,523.81 482.10,523.61 C479.79,523.38 478.63,523.85 477.70,525.46 C476.97,526.79 476.57,527.47 476.50,527.50 C475.91,527.80 475.08,527.17 474.50,527.50 C473.72,527.91 473.55,529.01 472.94,529.65 C472.14,530.42 471.33,530.70 470.50,530.50 C469.72,530.29 467.08,526.69 465.84,524.61 C464.68,522.55 464.26,519.77 465.03,518.73 C465.64,517.98 469.73,517.11 470.82,516.80 C472.65,516.28 474.09,514.93 474.15,513.64 C474.17,511.43 471.65,495.82 471.50,495.50 C470.92,494.37 470.25,493.70 469.50,493.50 C469.13,493.42 464.76,495.45 463.66,495.98 C461.97,496.87 460.85,498.41 461.00,499.63 C461.08,500.27 461.49,502.23 460.63,503.09 C460.01,503.66 456.32,505.62 455.14,505.84 C453.06,506.18 450.46,505.03 449.47,503.38 C448.85,502.34 446.72,498.92 445.50,498.50 C443.83,497.98 437.01,502.08 435.21,501.63 C434.66,501.47 432.23,499.35 431.74,498.76 C430.82,497.57 430.09,494.94 430.72,493.88 C431.53,492.60 434.23,491.12 436.39,490.61 C441.69,489.46 450.49,488.26 451.50,488.50 C452.68,488.78 456.28,490.13 457.50,489.50 C458.68,488.86 466.54,478.88 466.50,478.50 C466.34,477.57 465.68,477.24 464.50,477.50 C463.90,477.65 460.08,481.91 459.10,482.66 C457.56,483.83 454.09,484.93 452.43,484.85 C450.22,484.68 441.73,481.92 440.75,481.27 C439.63,480.50 437.93,473.58 437.50,473.50 C436.55,473.36 435.89,474.02 435.50,475.50 C435.35,476.13 437.21,479.64 437.50,480.50 C437.89,481.69 437.02,482.91 435.50,483.50 C434.51,483.86 424.50,485.75 423.50,486.50 C421.95,487.75 421.60,490.05 422.50,492.50 C423.16,494.26 424.56,497.22 424.69,497.75 C424.99,499.13 423.97,501.91 422.67,503.23 C421.70,504.21 417.89,507.43 417.50,508.50 C417.29,509.06 417.01,513.80 416.50,514.50 C416.01,515.14 411.17,516.83 409.94,516.81 C408.17,516.72 405.39,514.63 404.49,512.87 C403.56,510.96 400.18,499.96 398.67,498.27 C397.23,496.76 391.55,498.75 391.50,499.50 C391.47,500.23 395.46,503.44 395.50,503.50 C395.83,504.08 395.32,504.86 395.50,505.50 C395.68,506.23 396.49,506.76 396.50,507.50 C396.50,508.45 394.01,513.36 393.50,513.50 C392.83,513.66 391.05,510.06 389.50,509.50 C387.28,508.69 366.75,514.26 366.50,514.50 C365.70,515.39 368.12,516.60 370.50,516.50 C371.98,516.42 381.47,512.70 382.50,512.50 C384.44,512.17 385.80,513.02 385.50,514.50 C385.30,515.39 383.37,518.68 382.40,520.30 C381.48,521.93 381.53,523.06 382.54,523.51 C384.32,524.29 384.78,524.85 384.95,526.76 C385.32,531.61 385.17,538.16 384.50,540.50 C383.40,544.23 379.41,547.95 379.50,548.50 C379.78,549.81 380.45,550.48 381.50,550.50 C382.17,550.51 385.10,546.57 385.50,546.50 C386.23,546.37 386.77,547.36 387.50,547.50 C387.65,547.53 393.01,546.92 393.50,547.50 C393.86,547.92 393.13,552.80 393.50,553.50 C394.09,554.61 398.32,555.30 399.50,554.50 C400.58,553.72 401.60,550.04 401.50,548.50 C401.39,546.63 401.68,546.31 404.05,545.69 C404.27,545.63 416.78,542.08 420.57,541.14 C422.91,540.55 425.08,540.40 426.09,540.87 C426.79,541.24 428.20,543.84 428.74,545.37 C429.42,547.38 429.53,548.91 429.31,551.03 C429.20,552.24 429.78,552.72 431.11,552.60 C432.89,552.44 435.07,552.68 435.85,553.40 C436.72,554.27 436.33,556.26 435.06,557.63 C431.99,560.80 423.61,566.16 423.50,566.50 C423.36,567.04 426.24,567.69 427.50,567.50 C427.97,567.43 430.94,566.33 431.50,566.50 C432.39,566.81 433.75,569.29 433.50,570.50 C433.34,571.27 430.67,575.74 430.50,576.50 C430.29,577.45 431.50,581.22 431.50,581.50 C431.53,582.21 430.38,585.27 430.50,585.50 C430.69,585.93 431.57,586.03 431.50,586.50 C431.46,586.74 422.71,594.29 419.99,595.74 C418.34,596.59 417.40,596.49 415.98,595.56 C414.76,594.74 412.41,594.28 410.24,594.52 C406.55,594.90 404.47,594.65 403.50,593.50 C402.52,592.22 404.70,582.52 404.50,581.50 C404.17,579.97 403.65,578.93 402.93,578.36 C401.85,577.59 399.85,578.97 399.38,580.58 C398.42,583.85 397.75,585.42 396.50,586.50 C395.20,587.61 390.86,588.59 389.59,588.95 C387.82,589.46 385.23,591.54 384.45,593.08 C383.92,594.17 382.81,598.31 382.50,598.50 C381.93,598.84 381.15,598.34 380.50,598.50 C379.73,598.65 377.14,600.12 376.50,599.50 C376.08,599.05 375.89,595.07 375.98,593.01 C376.12,590.83 377.16,587.32 378.19,585.75 C379.78,583.40 384.55,581.99 384.50,581.50 C384.30,580.12 383.63,579.12 382.50,578.50 C381.87,578.17 378.93,580.41 378.50,580.50 C377.86,580.67 376.13,580.59 374.56,581.78 C374.24,582.03 364.91,588.75 362.87,589.17 C361.57,589.39 359.80,587.90 359.38,586.64 C358.64,584.36 357.14,583.03 354.50,582.50 C350.69,581.81 334.92,584.68 330.64,585.75 C328.81,586.24 327.73,587.22 328.66,587.89 C329.03,588.15 334.09,589.98 334.50,590.50 C334.98,591.07 334.87,592.10 335.50,592.50 C335.61,592.57 344.48,589.03 346.85,588.58 C348.14,588.36 351.06,588.72 351.68,589.27 C352.50,590.11 352.47,592.35 351.66,594.14 C350.97,595.58 349.01,599.06 348.50,599.50 C348.17,599.77 343.71,599.44 338.74,600.51 C333.88,601.62 327.37,602.81 324.82,602.61 C324.02,602.56 321.42,602.50 320.50,603.50 C319.57,604.57 317.80,609.21 317.25,610.60 C316.39,612.74 314.29,614.52 312.47,614.68 C310.98,614.59 308.46,614.59 307.55,615.48 C306.80,616.29 306.22,618.90 306.44,620.55 C306.74,622.53 307.74,623.80 309.98,625.32 C311.72,626.51 313.13,628.31 313.55,630.03 C314.43,633.90 315.32,653.57 316.80,656.18 C317.53,657.39 318.79,656.20 319.23,654.42 C320.27,649.76 321.52,641.40 321.50,640.50 C321.41,638.26 320.68,636.44 319.50,635.50 C318.35,634.59 316.91,632.78 316.50,631.50 C316.25,630.65 316.37,627.28 316.59,625.88 C316.92,624.18 317.90,623.05 320.08,621.75 C322.56,620.28 324.28,618.86 325.33,617.29 C326.24,615.89 328.10,612.87 328.99,611.43 C329.97,609.90 331.70,608.64 332.57,608.91 C333.34,609.21 333.57,611.21 333.11,612.50 C331.79,616.10 331.20,621.11 331.48,624.89 C332.00,631.29 334.75,642.86 335.31,645.93 C335.59,647.65 335.20,651.08 334.45,652.62 C333.81,653.94 330.50,655.31 330.50,655.50 C330.52,656.55 331.18,657.55 332.50,658.50 C333.22,658.98 335.94,657.35 336.50,656.50 C337.06,655.64 338.88,651.93 340.50,650.50 C341.90,649.28 351.57,645.96 352.50,646.50 C353.62,647.21 353.65,650.73 353.50,652.50 C353.53,653.09 354.93,656.00 354.50,656.50 C353.91,657.17 348.68,659.37 348.50,659.50 C347.45,660.26 347.64,663.13 348.50,663.50 C348.79,663.61 351.52,661.79 352.50,661.50 C353.72,661.15 356.22,661.68 356.50,662.50 C356.80,663.41 355.48,667.42 355.50,667.50 C355.74,668.26 358.01,668.56 359.97,668.34 C361.73,668.13 365.47,668.02 366.87,668.26 C368.43,668.59 371.05,670.88 371.75,672.67 C372.02,673.40 373.07,679.32 373.50,680.50 C374.01,681.87 375.18,681.80 376.50,680.50 C377.10,679.87 380.03,676.18 380.60,675.28 C381.62,673.59 381.34,671.10 380.05,669.07 C379.02,667.44 378.51,666.58 378.50,666.50 C378.43,665.46 381.63,664.04 384.50,663.50 C386.45,663.17 395.13,663.11 396.50,663.50 C398.34,664.07 400.40,665.54 400.50,666.50 C400.57,667.16 400.68,669.14 401.78,669.40 C404.32,669.93 409.35,667.60 409.94,667.66 C411.18,667.82 413.11,670.33 413.72,672.25 C414.36,674.44 415.27,678.99 415.46,681.11 C415.61,683.21 415.15,686.63 414.50,687.50 C413.50,688.67 411.12,688.81 408.47,687.95 C404.95,686.79 402.49,686.28 400.50,686.50 C398.57,686.75 395.63,688.22 393.81,689.72 C392.58,690.75 389.88,693.39 389.50,693.50 C388.86,693.69 387.00,693.61 384.66,694.91 C381.30,696.82 378.31,698.66 377.50,699.50 C376.26,700.85 376.29,703.11 377.50,703.50 C379.78,704.13 398.80,699.91 399.50,699.50 C401.70,698.21 403.81,694.93 404.50,694.50 C405.36,693.99 407.26,695.90 407.50,697.50 C407.63,698.45 406.54,702.29 406.35,703.36 C406.13,704.70 406.92,706.29 407.90,706.45 C408.78,706.57 416.56,706.65 420.90,707.34 C423.42,707.77 426.05,708.41 427.90,709.10 C429.54,709.77 432.46,712.07 433.34,713.60 C433.75,714.33 436.83,724.14 436.50,724.50 C436.36,724.64 426.66,729.38 424.50,731.50 C423.18,732.86 422.66,734.87 423.50,735.50 C424.10,735.91 428.78,736.12 429.03,736.17 C430.38,736.48 432.22,738.19 432.63,739.40 C433.33,741.72 432.69,749.08 431.78,753.13 C431.22,755.56 428.27,766.58 428.50,767.50 C428.84,768.64 431.32,769.33 432.50,768.50 C433.60,767.68 435.57,763.74 435.50,762.50 C435.49,762.34 434.11,759.05 434.50,758.50 C435.03,757.82 443.38,756.26 445.02,756.61 C446.51,756.98 448.85,761.58 448.39,763.54 C448.12,764.55 446.69,766.65 445.70,767.47 C444.41,768.47 442.68,768.52 441.42,767.66 C439.83,766.52 437.65,766.40 437.50,767.50 C437.48,767.88 440.65,769.60 442.50,770.50 C444.63,771.46 447.36,772.07 448.50,771.50 C449.63,770.93 453.18,766.61 453.50,766.50 C454.60,766.14 455.27,766.47 455.50,767.50 C455.64,768.23 454.71,768.78 454.50,769.50 C454.36,769.97 455.75,777.21 455.69,781.19 C455.64,782.41 455.25,785.04 454.80,785.53 C453.76,786.55 443.19,787.26 442.50,787.50 C440.53,788.18 439.53,788.51 439.50,788.50 C439.41,788.47 437.12,784.35 436.50,784.50 C436.20,784.59 435.99,788.51 436.04,790.14 C436.13,792.04 437.01,793.09 438.16,792.65 C438.97,792.33 441.67,791.23 443.07,791.86 C444.41,792.52 444.54,794.36 443.44,796.22 C442.64,797.53 441.99,798.29 441.50,798.50 C440.89,798.76 440.09,798.19 439.50,798.50 C438.72,798.91 438.38,799.58 438.50,800.50 C438.62,801.08 441.47,801.12 442.50,800.50 C443.19,800.09 447.62,795.93 448.50,795.50 C449.80,794.89 452.94,795.62 453.50,796.50 C453.89,797.14 454.49,799.95 455.50,800.50 C456.29,800.92 460.28,800.89 462.27,800.85 C464.42,800.90 467.08,802.41 468.22,804.24 C468.81,805.25 470.32,808.94 470.38,809.73 C470.41,810.70 468.85,812.05 467.18,812.68 C464.22,813.79 462.72,814.61 462.50,815.50 C462.34,816.37 464.09,818.38 465.85,819.55 C467.46,820.55 470.16,820.41 471.98,819.28 C472.85,818.73 473.48,817.65 474.50,817.50 C475.24,817.40 475.79,818.29 476.50,818.50 C477.13,818.71 477.86,818.31 478.50,818.50 C479.16,818.74 481.32,821.61 481.50,822.50 C481.62,823.13 480.61,827.45 480.50,828.50 C480.36,829.68 480.72,834.32 480.77,835.60 C480.84,837.60 480.01,839.83 478.91,840.65 C478.46,840.97 477.34,840.98 477.50,841.50 C477.85,842.42 479.96,842.51 481.44,841.58 C482.49,840.93 484.65,840.02 485.38,840.19 C486.35,840.45 488.17,842.15 489.29,843.78 C490.54,845.73 491.91,848.63 491.50,849.50 C490.87,850.79 486.52,852.84 485.50,853.50 C484.66,854.05 485.27,856.71 485.50,857.50 C485.64,857.93 490.56,881.29 490.50,881.50 C490.31,882.22 489.37,882.77 489.50,883.50 C489.69,884.31 490.35,884.65 491.50,884.50 C492.89,884.26 499.58,876.97 500.90,873.72 C502.03,870.77 502.70,864.29 502.24,861.36 C502.20,861.13 501.20,856.30 501.14,855.19 C501.09,853.73 502.13,850.77 503.24,849.49 C504.19,848.47 507.78,846.24 508.50,846.50 C509.61,846.96 510.65,849.30 511.50,852.50 C511.99,854.35 513.45,855.75 515.50,856.50 C517.01,857.01 526.75,858.22 527.50,858.50 C529.04,859.11 529.69,860.52 529.50,862.50 C528.29,872.70 522.73,894.10 522.50,894.50 C522.14,895.08 516.79,895.68 512.14,897.09 C511.00,897.45 506.88,899.00 506.50,899.50 C505.82,900.48 506.54,903.22 507.50,903.50 C508.14,903.70 508.89,903.23 509.50,903.50 C510.35,903.88 513.16,908.07 513.50,909.50 C513.86,911.08 512.56,914.58 512.50,915.50 C512.44,916.77 513.84,917.72 516.31,918.25 C517.29,918.46 522.19,919.71 524.54,920.38 C526.74,921.02 528.84,922.38 529.50,923.62 C530.04,924.72 528.63,926.63 527.50,926.50 C526.76,926.42 526.23,925.64 525.50,925.50 C524.39,925.30 520.70,927.19 519.50,928.50 C518.72,929.39 517.73,933.09 517.46,934.13 C517.06,935.64 515.47,938.00 514.40,938.26 C513.22,938.48 510.49,936.90 509.14,935.42 C506.51,932.52 505.03,931.15 503.50,930.50 C501.36,929.63 495.66,931.22 495.50,931.50 C495.20,932.09 495.64,932.85 495.50,933.50 C495.34,934.23 494.62,934.77 494.50,935.50 C494.38,936.16 494.91,936.97 494.50,937.50 C494.21,937.86 488.66,939.28 487.35,939.79 C485.51,940.51 483.56,942.48 483.52,943.68 C483.54,944.84 487.14,953.18 488.79,956.85 C489.57,958.75 489.33,960.74 488.23,960.78 C487.12,960.73 484.71,958.88 483.17,956.98 C481.68,955.13 478.95,951.61 477.57,949.84 C476.15,948.07 474.50,946.68 473.71,946.91 C473.43,947.01 463.99,954.11 463.50,955.50 C463.00,956.95 463.54,962.40 463.50,962.50 C463.45,962.64 459.89,965.33 459.50,966.50 C459.19,967.41 460.56,972.08 460.77,973.41 C461.05,975.23 459.94,977.70 458.51,978.42 C456.98,979.11 453.59,979.20 452.50,978.50 C451.39,977.74 450.15,974.09 449.83,972.98 C449.31,971.29 447.17,969.24 445.42,969.00 C442.66,968.70 435.90,971.97 433.50,973.50 C431.90,974.58 430.77,976.04 430.50,977.50 C430.36,978.38 430.53,982.04 430.71,983.27 C430.98,984.95 432.11,986.14 433.69,986.64 C435.32,987.16 435.88,988.26 435.53,990.44 C435.29,991.87 434.94,992.89 434.50,993.50 C433.95,994.27 432.90,994.65 432.50,995.50 C432.24,996.08 433.91,999.15 434.50,999.50 C435.15,999.86 438.25,999.42 438.50,999.50 C439.22,999.69 439.76,1000.42 440.50,1000.50 C440.59,1000.51 442.91,998.37 444.50,997.50 C445.18,997.12 454.40,993.82 459.44,992.28 C461.62,991.64 464.90,991.16 466.31,991.38 C467.78,991.63 472.19,995.50 472.50,995.50 C473.25,995.49 474.98,994.33 476.94,994.42 C480.45,994.52 487.19,994.67 488.68,993.43 C490.86,991.12 498.20,987.37 499.65,986.51 C501.28,985.53 504.24,983.01 505.38,981.61 C506.31,980.45 508.41,976.64 508.50,976.50 C509.54,975.06 510.88,974.29 513.06,973.91 C517.22,973.21 524.76,970.70 527.60,968.60 C528.80,967.68 531.22,965.16 532.23,964.05 C533.42,962.76 533.46,961.17 533.50,960.50 C533.59,959.12 535.20,955.84 536.50,954.50 C537.36,953.62 541.31,951.96 541.54,951.76 C542.42,950.99 542.52,948.48 541.82,947.01 C541.20,945.75 538.98,942.32 537.86,940.72 C536.62,938.97 536.73,937.13 536.50,936.50 C536.36,936.05 535.70,935.93 535.50,935.50 C535.00,934.30 538.84,930.06 542.35,928.05 C545.30,926.40 554.10,923.76 555.50,924.50 C556.41,925.00 559.34,929.36 559.50,929.50 C560.62,930.50 567.70,929.64 570.20,928.55 C574.34,926.75 577.13,926.15 581.08,926.16 C582.60,926.08 584.63,924.78 586.31,922.90 C588.40,920.57 589.04,920.15 590.29,920.40 C591.79,920.71 593.45,920.23 595.78,918.72 C597.33,917.69 598.24,916.95 598.50,916.50 C598.81,915.91 598.33,915.14 598.50,914.50 C598.67,913.77 599.62,913.24 599.50,912.50 C599.39,911.80 597.05,910.23 597.50,909.50 C597.79,909.07 608.65,905.34 609.50,904.50 C610.44,903.58 612.77,900.33 613.50,900.50 C614.13,900.68 620.65,908.12 622.50,908.50 C624.15,908.78 626.39,907.57 628.12,905.64 C629.37,904.15 629.64,902.66 628.91,901.52 C628.46,900.83 627.19,898.79 627.35,897.26 C627.55,895.43 629.35,888.04 630.13,885.47 C630.61,883.91 629.64,882.23 629.50,881.50 C629.43,881.15 632.38,867.78 632.50,867.50 C633.08,866.33 633.74,865.66 634.50,865.50 C634.87,865.44 639.77,867.65 640.96,868.34 C642.59,869.33 644.38,871.69 644.55,873.06 C644.75,875.54 641.23,884.00 641.50,884.50 C642.07,885.45 646.30,886.21 647.50,885.50 C648.65,884.79 651.38,875.41 652.74,872.69 C653.53,871.20 655.83,869.59 658.15,868.85 C659.76,868.39 660.87,868.27 661.50,868.50 C662.65,868.99 662.44,870.96 661.29,872.64 C660.68,873.53 658.39,877.11 658.50,877.50 C658.80,878.35 659.46,878.68 660.50,878.50 C660.78,878.44 671.54,866.80 671.50,866.50 C671.45,866.26 667.98,863.06 667.21,862.35 C665.38,860.75 663.80,860.30 661.33,860.60 C659.23,860.83 657.39,859.97 656.84,858.22 C656.40,856.65 656.59,853.39 657.16,851.69 C657.93,849.63 659.33,847.74 660.50,847.50 C662.25,847.21 668.35,851.14 668.50,851.50 C668.76,852.12 668.27,852.88 668.50,853.50 C668.90,854.58 669.56,855.25 670.50,855.50 C671.06,855.63 673.17,853.15 673.50,852.50 C673.79,851.90 674.98,847.09 677.50,842.50 C678.69,840.42 679.76,838.85 680.50,838.50 C681.61,838.21 683.66,837.44 683.50,836.50 C683.37,835.86 680.70,832.46 679.41,831.05 C678.00,829.57 676.70,829.43 676.57,830.75 C676.48,831.67 676.87,832.66 676.50,833.50 C676.04,834.53 675.38,834.87 674.50,834.50 C674.06,834.30 672.14,829.84 671.50,828.50 C670.25,825.71 669.84,823.61 670.50,822.50 C671.18,821.47 680.22,819.07 680.94,819.02 C681.86,818.97 683.66,820.74 684.28,821.33 C685.58,822.55 687.61,822.43 689.40,820.98 C691.08,819.55 691.68,818.03 691.14,816.77 C690.53,815.38 690.46,813.66 691.06,812.00 C691.43,810.96 692.73,807.31 692.50,806.50 C692.10,805.21 689.64,803.97 688.50,804.50 C687.74,804.89 686.33,807.76 686.50,808.50 C686.67,809.23 687.43,809.76 687.50,810.50 C687.61,811.64 687.28,812.30 686.50,812.50 C685.77,812.65 685.22,811.70 684.50,811.50 C683.86,811.30 683.12,811.74 682.50,811.50 C682.14,811.34 678.78,807.00 678.49,806.51 C677.64,804.97 677.42,802.12 678.07,800.80 C678.80,799.47 681.49,797.38 683.50,796.50 C684.84,795.95 689.21,794.93 690.98,794.71 C693.11,794.49 696.58,794.80 697.50,795.50 C698.90,796.65 699.37,798.87 699.24,802.48 C699.16,804.56 699.88,806.55 701.02,807.25 C701.81,807.72 704.15,808.97 705.39,810.79 C706.63,812.63 708.35,815.67 708.50,816.50 C708.66,817.45 707.52,820.19 707.50,820.50 C707.39,822.56 709.16,826.36 710.50,826.50 C711.49,826.56 717.53,818.85 717.50,818.50 C717.47,818.27 711.30,811.45 708.81,807.90 C707.80,806.37 705.61,803.04 705.50,802.50 C705.26,801.06 706.83,799.58 708.50,799.50 C709.43,799.47 712.24,800.44 712.79,800.43 C715.33,800.33 722.65,796.39 726.95,793.48 C732.11,789.89 733.61,787.82 734.50,787.50 C735.63,787.16 737.65,791.88 738.72,797.26 C739.03,798.81 740.29,800.59 741.34,800.88 C742.87,801.23 748.16,796.86 749.50,796.77 C750.67,796.73 751.82,797.80 753.39,800.13 C754.72,802.08 756.61,803.08 758.01,802.45 C759.40,801.73 759.55,799.50 758.43,797.24 C757.63,795.71 756.99,794.80 756.50,794.50 C755.92,794.17 755.16,794.63 754.50,794.50 C753.77,794.37 753.23,793.65 752.50,793.50 C751.85,793.36 751.07,793.85 750.50,793.50 C750.37,793.41 748.53,783.89 747.50,781.50 C746.56,779.39 744.12,775.67 742.86,774.55 C741.60,773.50 739.38,773.56 738.51,774.64 C737.81,775.54 735.83,778.82 734.50,779.50 C733.23,780.12 730.11,779.93 728.55,779.22 C727.21,778.53 725.84,776.45 725.79,775.01 C725.80,773.80 726.77,770.21 727.50,769.50 C728.49,768.54 732.50,766.61 732.50,766.50 C732.51,766.20 728.75,763.97 728.50,763.50 C728.25,763.06 729.69,760.19 729.50,759.50 C729.19,758.38 725.64,755.49 724.50,755.50 C723.70,755.52 720.93,758.36 720.50,758.50 C719.65,758.78 716.97,757.36 716.50,756.50 C716.15,755.85 716.22,754.68 715.50,754.50 C715.18,754.43 710.46,757.16 710.50,757.50 C710.59,758.44 712.16,758.62 712.50,759.50 C712.78,760.17 710.49,764.98 710.50,765.50 C710.50,766.25 711.73,768.11 711.38,769.45 C711.01,770.79 709.83,772.34 708.80,772.66 C707.55,773.01 706.26,772.38 703.81,770.53 C702.67,769.67 701.90,769.33 701.50,769.50 C700.76,769.84 699.50,775.50 699.50,775.50 C699.05,776.26 696.67,776.58 695.86,776.19 C693.70,775.01 689.05,768.51 686.93,765.15 C684.99,762.03 685.56,758.59 685.50,758.50 C684.99,757.71 683.98,757.31 683.50,756.50 C683.16,755.90 683.99,753.06 684.50,752.50 C685.13,751.80 686.20,751.39 686.50,750.50 C686.65,750.05 684.39,746.00 683.74,744.96 C682.53,743.00 682.46,741.24 683.50,739.50 C684.37,738.15 688.79,734.16 689.50,734.50 C690.45,734.98 692.60,739.62 693.50,740.50 C694.11,741.12 697.29,740.43 697.50,740.50 C698.19,740.72 699.47,743.40 699.50,744.50 C699.52,745.26 699.01,748.06 699.50,748.50 C700.05,748.98 702.60,749.37 704.50,749.50" fill="none" stroke="rgb(255, 128, 155)" stroke-width="3.72" stroke-opacity="1.00" stroke-linejoin="round"/>
<path d="M580.50,480.50 C579.84,481.09 578.68,485.97 578.36,487.38 C577.88,489.77 576.21,491.81 576.50,492.50 C576.93,493.37 581.35,494.18 582.50,493.50 C583.32,492.99 584.32,489.16 584.59,486.89 C584.79,484.71 583.89,481.15 582.82,480.30 C582.08,479.77 581.31,479.83 580.50,480.50 Z" fill="none" stroke="rgb(255, 128, 155)" stroke-width="3.72" stroke-opacity="1.00" stroke-linejoin="round"/>
<path d="M544.50,481.50 C542.67,481.70 541.67,482.37 541.50,483.50 C541.35,484.69 543.15,485.35 543.50,486.50 C543.71,487.22 542.55,487.76 542.50,488.50 C542.47,489.25 543.50,489.76 543.50,490.50 C543.50,491.31 540.44,496.90 540.50,497.50 C540.61,498.44 541.86,498.81 542.50,499.50 C543.26,500.26 543.62,501.36 544.41,502.08 C545.54,503.02 546.97,502.21 547.58,500.36 C548.94,496.03 550.22,490.69 550.50,490.50 C551.06,490.14 551.87,490.72 552.50,490.50 C553.73,490.08 554.79,487.87 554.43,486.60 C553.98,485.27 552.77,483.44 551.71,482.59 C550.46,481.63 548.63,481.40 547.21,481.92 C546.15,482.35 545.58,482.54 545.50,482.50 C545.07,482.32 544.97,481.46 544.50,481.50 Z" fill="none" stroke="rgb(255, 128, 155)" stroke-width="3.72" stroke-opacity="1.00" stroke-linejoin="round"/>
<path d="M611.50,492.50 C612.29,492.11 614.69,493.71 614.50,494.50 C614.30,495.29 611.10,496.89 610.50,496.50 C609.91,496.10 610.71,492.90 611.50,492.50 Z" fill="none" stroke="rgb(255, 128, 155)" stroke-width="3.72" stroke-opacity="1.00" stroke-linejoin="round"/>
<path d="M520.50,499.50 C519.43,499.31 516.48,498.78 516.50,498.50 C516.59,497.51 517.25,497.18 518.50,497.50 C518.93,497.61 519.60,498.28 520.50,499.50" fill="none" stroke="rgb(255, 128, 155)" stroke-width="3.72" stroke-opacity="1.00" stroke-linejoin="round"/>
<path d="M521.50,500.50 C522.88,499.62 524.26,499.36 526.44,499.76 C528.32,500.13 530.84,500.96 531.34,501.65 C532.63,503.53 534.20,517.51 534.50,520.50 C534.69,522.68 534.50,524.15 533.50,524.50 C532.35,524.90 531.04,524.86 529.95,525.41 C528.93,525.92 528.45,526.62 528.50,527.50 C528.59,528.31 537.74,535.94 539.08,537.36 C540.25,538.68 540.94,541.19 540.10,542.06 C539.51,542.66 534.74,544.15 534.50,544.50 C534.13,545.05 534.49,547.11 533.89,548.52 C533.46,549.56 533.33,550.22 533.50,550.50 C533.98,551.31 535.30,551.58 535.50,552.50 C535.56,552.75 533.13,557.47 533.50,558.50 C533.92,559.65 538.29,561.06 539.50,560.50 C540.51,559.99 541.54,556.31 541.50,554.50 C541.47,553.41 541.51,549.58 542.50,548.50 C543.26,547.69 548.36,545.92 548.77,545.60 C549.98,544.63 550.72,541.47 550.39,539.72 C549.80,537.04 545.51,526.85 545.50,526.50 C545.49,525.52 548.23,523.40 548.50,522.50 C548.65,522.02 546.08,518.17 545.66,517.13 C545.08,515.66 545.96,513.35 547.42,512.50 C550.85,510.64 554.88,510.73 555.50,510.50 C555.71,510.42 565.30,501.58 565.50,501.50 C566.12,501.26 568.74,501.27 569.36,501.18 C570.84,501.03 572.39,502.19 573.08,504.14 C573.53,505.52 573.67,506.64 573.50,507.50 C573.31,508.46 571.41,511.87 571.50,513.50 C571.67,515.98 576.46,523.19 577.50,523.50 C579.02,523.90 582.64,521.95 583.50,520.50 C584.05,519.49 583.18,517.92 581.74,516.43 C580.81,515.48 580.40,514.84 580.50,514.50 C580.78,513.60 581.96,513.27 582.50,512.50 C582.86,512.00 582.76,507.57 582.70,506.92 C582.50,504.56 582.68,503.06 583.50,502.50 C583.70,502.38 596.33,500.14 597.50,500.50 C599.08,501.04 600.23,503.44 599.50,504.50 C599.10,505.06 595.79,506.31 595.50,506.50 C594.63,507.09 594.06,509.16 594.50,510.50 C595.19,512.40 597.85,515.14 599.50,515.50 C600.92,515.77 609.11,510.45 609.67,510.15 C610.63,509.63 613.44,509.37 614.37,509.11 C616.22,508.58 618.39,506.75 619.27,504.98 C619.82,503.89 621.67,500.49 622.50,500.50 C623.33,500.57 624.55,502.40 625.95,505.34 C628.41,510.57 631.06,514.63 633.53,515.82 C635.63,516.82 636.82,517.87 637.50,519.50 C638.18,521.23 638.11,530.98 638.50,531.50 C639.11,532.26 641.77,531.57 642.50,531.50 C643.16,531.40 643.89,531.78 644.50,531.50 C644.89,531.32 647.53,527.51 648.33,526.71 C649.45,525.61 651.57,525.43 652.52,526.35 C653.28,527.11 655.66,529.85 657.50,530.50 C659.46,531.17 668.82,530.19 669.50,530.50 C670.69,531.08 671.36,533.41 671.50,534.50 C671.73,535.21 672.63,535.77 672.50,536.50 C672.38,537.17 671.33,537.22 670.84,537.70 C669.77,538.78 669.33,541.58 669.91,543.90 C670.35,545.56 672.03,550.57 672.50,551.50 C673.30,552.98 674.80,554.04 675.50,553.50 C675.94,553.14 678.11,549.83 678.50,549.50 C678.50,549.50 681.48,548.34 682.50,547.50 C683.17,546.96 690.27,537.60 690.50,537.50 C691.11,537.24 693.63,537.32 694.87,536.07 C696.29,534.60 698.02,531.56 698.45,529.83 C698.98,527.55 700.51,519.81 702.00,516.91 C702.54,515.86 703.04,515.40 703.50,515.50 C704.62,515.81 705.29,516.47 705.50,517.50 C705.63,518.23 704.37,519.83 704.56,521.36 C704.69,522.79 704.35,524.10 703.47,525.56 C702.58,527.04 702.46,527.70 702.71,529.37 C702.91,530.76 701.06,533.17 700.48,534.11 C699.39,535.94 699.60,538.53 701.04,540.24 C702.78,542.17 705.80,544.25 707.50,544.50 C709.20,544.70 712.74,543.32 714.44,541.95 C715.83,540.76 717.15,538.19 717.04,536.90 C716.99,536.41 715.84,533.02 715.50,531.50 C714.96,529.05 714.84,525.80 715.50,525.50 C716.30,525.21 719.12,528.14 720.50,530.50 C721.46,532.19 723.63,540.96 723.50,542.50 C723.29,544.43 722.35,545.98 720.50,547.50 C719.36,548.43 716.15,551.55 715.50,552.50 C714.93,553.35 714.05,559.60 714.50,560.50 C714.94,561.31 717.35,563.08 718.50,563.50 C719.74,563.89 721.94,563.46 722.50,562.50 C723.08,561.50 724.50,557.19 725.50,556.50 C726.25,556.00 729.41,556.93 730.96,557.43 C732.63,557.91 734.56,557.02 735.92,555.31 C736.87,554.11 737.40,553.51 737.50,553.50 C738.06,553.48 742.57,562.31 742.50,562.50 C742.33,562.94 741.59,563.04 741.50,563.50 C741.45,563.76 745.89,574.80 746.50,575.50 C747.11,576.22 748.07,576.66 748.50,577.50 C748.62,577.75 747.00,587.52 746.50,589.50 C745.76,592.36 742.36,600.93 743.50,601.50 C743.94,601.68 747.37,599.26 749.12,597.83 C750.88,596.33 752.34,594.35 752.52,593.23 C752.49,590.58 754.45,588.21 755.50,588.50 C756.56,588.82 760.11,592.51 760.50,593.50 C760.69,594.09 756.77,595.37 756.50,595.50 C755.20,596.11 745.20,604.32 744.50,605.50 C743.83,606.71 744.39,608.71 745.50,609.50 C746.27,610.03 749.20,611.18 749.50,611.50 C749.74,611.76 750.07,612.43 750.50,613.50" fill="none" stroke="rgb(255, 128, 155)" stroke-width="3.72" stroke-opacity="1.00" stroke-linejoin="round"/>
<path d="M644.50,509.50 C643.45,510.50 645.53,512.58 645.50,510.50 C645.52,509.12 645.19,508.78 644.50,509.50 Z" fill="none" stroke="rgb(255, 128, 155)" stroke-width="3.72" stroke-opacity="1.00" stroke-linejoin="round"/>
<path d="M675.50,516.50 C676.78,516.00 680.74,517.42 681.50,518.50 C682.13,519.46 681.33,522.12 680.50,522.50 C679.98,522.71 676.92,521.53 676.50,521.50 C676.27,521.48 672.67,521.99 672.50,521.50 C672.28,520.65 674.26,517.01 675.50,516.50 Z" fill="none" stroke="rgb(255, 128, 155)" stroke-width="3.72" stroke-opacity="1.00" stroke-linejoin="round"/>
<path d="M341.50,528.50 C342.87,527.78 343.54,528.12 343.50,529.50 C343.54,530.89 342.87,531.22 341.50,530.50 C340.10,529.83 340.10,529.17 341.50,528.50 Z" fill="none" stroke="rgb(255, 128, 155)" stroke-width="3.72" stroke-opacity="1.00" stroke-linejoin="round"/>
<path d="M364.50,535.50 C365.27,535.52 370.04,537.84 370.50,538.50 C370.94,539.18 368.96,541.74 368.50,542.50 C367.80,543.62 367.33,546.69 367.50,548.50 C367.71,550.36 371.15,558.23 372.60,559.50 C373.86,560.55 376.52,560.45 378.12,559.45 C379.63,558.43 382.70,556.42 383.50,556.50 C384.88,556.67 385.59,559.36 384.50,560.50 C383.52,561.48 364.90,565.84 362.50,566.50 C361.07,566.85 360.08,566.22 358.05,563.77 C355.73,560.90 355.00,559.63 354.78,558.11 C354.65,556.78 353.17,555.17 353.50,554.50 C353.95,553.63 358.22,552.71 359.50,551.50 C362.04,549.11 361.29,537.81 361.50,537.50 C361.96,536.91 362.91,536.96 363.50,536.50 C363.89,536.24 364.03,535.51 364.50,535.50 Z" fill="none" stroke="rgb(255, 128, 155)" stroke-width="3.72" stroke-opacity="1.00" stroke-linejoin="round"/>
<path d="M752.50,553.50 C752.76,552.30 752.76,551.64 752.50,551.50 C750.48,550.45 749.81,550.78 750.50,552.50 C750.95,553.62 752.77,553.55 753.50,554.50 C753.63,554.68 752.96,554.68 751.50,554.50" fill="none" stroke="rgb(255, 128, 155)" stroke-width="3.72" stroke-opacity="1.00" stroke-linejoin="round"/>
<path d="M756.50,565.50 C755.50,563.62 754.84,562.62 754.50,562.50 C753.40,562.11 753.06,562.78 753.50,564.50 C753.63,564.99 760.31,567.71 760.50,568.50 C760.81,569.87 758.56,572.95 757.50,572.50 C756.78,572.19 755.93,568.99 755.50,566.50" fill="none" stroke="rgb(255, 128, 155)" stroke-width="3.72" stroke-opacity="1.00" stroke-linejoin="round"/>
<path d="M411.50,566.50 C412.87,565.78 413.54,566.12 413.50,567.50 C413.54,568.89 412.87,569.22 411.50,568.50 C410.10,567.83 410.10,567.17 411.50,566.50 Z" fill="none" stroke="rgb(255, 128, 155)" stroke-width="3.72" stroke-opacity="1.00" stroke-linejoin="round"/>
<path d="M765.50,598.50 C766.66,597.66 768.56,598.39 768.50,599.50 C768.41,600.53 764.31,606.05 764.50,606.50 C764.87,607.37 766.16,607.62 766.50,608.50 C766.92,609.55 764.90,610.87 763.59,610.56 C762.16,610.17 760.95,608.90 760.06,606.89 C759.54,605.60 759.35,604.80 759.50,604.50 C759.86,603.85 760.91,603.95 761.50,603.50 C761.90,603.22 764.78,599.03 765.50,598.50 Z" fill="none" stroke="rgb(255, 128, 155)" stroke-width="3.72" stroke-opacity="1.00" stroke-linejoin="round"/>
<path d="M705.50,748.50 C705.16,747.40 704.08,743.89 703.84,743.01 C703.37,741.20 703.58,740.10 704.50,738.67 C705.36,737.35 705.62,735.76 705.23,733.56 C704.85,731.52 704.04,727.31 703.71,725.41 C703.36,723.24 703.76,721.29 704.73,720.50 C705.26,720.08 707.11,718.97 707.42,717.75 C707.87,715.78 706.01,711.65 705.50,711.50 C704.86,711.31 704.07,711.84 703.50,711.50 C702.93,711.15 701.56,706.81 701.50,705.50 C701.48,703.82 703.33,702.11 705.50,701.50 C707.32,701.05 716.76,701.62 717.50,702.50 C718.41,703.60 718.03,707.62 718.50,708.50 C718.91,709.27 723.41,710.14 724.50,710.50 C725.69,710.88 727.41,712.68 727.50,713.50 C727.54,713.99 726.53,716.75 726.50,717.50 C726.47,718.75 727.66,722.33 728.50,723.50 C729.78,725.20 736.30,727.33 739.11,728.16 C741.51,729.02 745.01,734.31 745.50,734.50 C746.49,734.84 749.82,732.78 750.50,731.50 C750.53,731.45 751.72,726.62 752.50,725.50 C753.12,724.64 756.20,722.89 757.93,722.17 C759.70,721.48 761.06,721.52 762.71,722.14 C763.96,722.61 765.09,722.37 766.26,721.31 C767.60,720.02 769.16,717.80 769.50,716.50 C769.96,714.62 768.25,707.79 768.26,706.81 C768.28,706.04 769.10,694.07 769.01,691.83 C768.91,690.00 767.87,688.87 766.90,689.77 C765.64,691.04 763.79,695.22 763.50,697.50 C763.23,699.89 765.93,707.94 765.50,709.50 C765.03,711.00 763.27,712.39 761.10,713.07 C759.48,713.51 756.55,713.40 755.73,712.60 C754.88,711.71 754.36,708.55 754.57,706.79 C754.96,703.94 755.85,699.94 757.82,694.61 C758.73,692.13 757.91,682.74 757.96,680.89 C758.03,679.02 759.19,675.36 760.22,673.96 C760.89,673.04 764.55,669.89 764.50,669.50 C764.28,668.29 761.95,668.58 760.27,670.13 C758.44,671.76 755.99,673.30 754.50,673.50 C752.97,673.68 750.80,672.87 748.59,671.55 C747.06,670.57 745.04,670.89 744.50,670.50 C743.93,670.10 743.40,666.91 742.50,666.50 C741.75,666.16 737.58,667.00 737.50,667.50 C737.38,668.24 738.49,668.76 738.50,669.50 C738.50,669.93 734.22,672.90 733.40,673.29 C727.89,675.83 717.80,673.38 717.50,673.50 C716.37,674.06 716.55,675.96 717.94,678.45 C719.34,681.00 720.20,684.25 719.50,685.50 C718.75,686.76 713.86,687.95 712.36,688.26 C710.82,688.58 709.87,688.99 709.50,689.50 C708.82,690.47 710.47,694.39 710.50,695.50 C710.54,696.71 707.75,698.77 706.50,698.50 C705.40,698.22 702.65,695.29 701.50,693.50 C700.56,691.95 699.69,689.27 699.50,687.50 C699.40,686.41 699.31,677.80 699.50,677.50 C699.70,677.21 704.04,675.07 705.23,674.16 C706.72,673.00 708.23,670.02 708.21,668.24 C708.16,667.08 706.98,662.41 706.50,661.50 C705.82,660.30 703.46,657.81 702.50,657.50 C701.13,657.13 700.13,657.13 699.50,657.50 C699.05,657.78 697.92,662.37 697.35,663.53 C696.63,664.97 694.36,665.99 692.86,665.54 C689.42,664.40 686.97,661.52 686.50,661.50 C685.91,661.51 682.75,663.71 682.50,664.50 C682.26,665.33 684.09,669.38 684.50,670.50 C685.27,672.56 685.29,675.74 684.50,676.50 C682.52,678.17 669.58,670.56 668.50,669.50 C667.82,668.84 666.11,667.26 664.32,667.11 C664.16,667.09 658.91,666.52 658.50,666.50 C656.34,666.37 655.15,665.83 654.50,664.50 C653.89,663.16 652.23,652.98 652.42,651.81 C652.59,651.03 654.53,649.95 656.31,649.36 C658.21,648.76 661.57,648.07 661.70,648.00 C662.40,647.56 662.53,645.79 662.07,644.24 C661.56,642.66 660.19,639.40 659.50,638.50 C659.08,637.94 655.45,634.06 655.50,633.50 C655.57,632.92 659.12,630.09 659.50,629.50 C659.73,629.16 660.88,620.68 662.50,619.50 C664.36,618.26 667.88,618.69 668.50,619.50 C669.11,620.30 670.61,623.60 671.50,623.50 C672.39,623.35 675.80,615.21 675.60,613.08 C675.47,611.64 675.72,610.69 676.66,609.41 C677.55,608.25 679.46,606.79 680.54,606.48 C681.79,606.16 683.57,607.52 684.13,608.01 C685.33,609.07 687.41,609.84 689.05,609.77 C690.09,609.72 693.58,609.76 694.50,610.50 C695.37,611.25 696.09,613.82 696.09,615.78 C696.03,617.56 694.75,619.80 693.00,621.37 C692.18,622.10 689.98,624.19 689.98,625.52 C690.02,626.44 691.78,630.01 692.50,630.50 C692.67,630.61 696.02,629.04 698.50,628.50 C699.95,628.17 712.22,627.68 712.50,627.50 C713.29,626.99 713.63,625.87 714.50,625.50 C715.40,625.09 719.17,625.36 719.50,624.50 C719.69,623.94 717.70,620.99 716.15,618.94 C714.66,617.01 714.50,615.50 714.50,614.50 C714.33,613.78 713.62,613.24 713.50,612.50 C713.38,611.58 715.36,609.63 716.50,609.50 C716.74,609.48 724.50,612.94 727.37,612.50 C727.40,612.49 731.59,611.42 732.50,611.50 C733.59,611.62 736.35,612.89 736.50,613.50 C736.68,614.52 733.25,616.80 732.13,617.45 C730.63,618.32 729.75,619.00 729.50,619.50 C728.99,620.55 731.81,621.18 733.50,620.50 C734.41,620.12 741.21,612.76 742.50,612.50 C743.88,612.25 745.22,612.34 746.53,612.78 C747.61,613.17 751.17,615.19 751.50,614.50 C751.55,614.38 751.21,614.04 750.50,613.50" fill="none" stroke="rgb(255, 128, 155)" stroke-width="3.72" stroke-opacity="1.00" stroke-linejoin="round"/>
<path d="M297.50,615.50 C298.38,614.88 299.05,615.21 299.50,616.50 C299.75,617.21 297.84,620.67 297.50,620.50 C297.16,620.33 297.02,615.84 297.50,615.50 Z" fill="none" stroke="rgb(255, 128, 155)" stroke-width="3.72" stroke-opacity="1.00" stroke-linejoin="round"/>
<path d="M679.50,624.50 C680.87,624.50 681.87,624.83 682.50,625.50 C682.73,625.72 678.71,625.72 678.50,625.50 C677.80,624.83 678.13,624.50 679.50,624.50 Z" fill="none" stroke="rgb(255, 128, 155)" stroke-width="3.72" stroke-opacity="1.00" stroke-linejoin="round"/>
<path d="M748.50,625.50 C748.50,625.50 748.50,626.50 748.50,626.50" fill="none" stroke="rgb(255, 128, 155)" stroke-width="3.72" stroke-opacity="1.00" stroke-linejoin="round"/>
<path d="M678.50,635.50 C678.96,635.14 682.37,637.01 682.50,637.50 C682.78,638.73 681.02,639.77 679.33,639.43 C678.19,639.20 677.59,638.89 677.50,638.50 C677.26,637.24 677.59,636.24 678.50,635.50 Z" fill="none" stroke="rgb(255, 128, 155)" stroke-width="3.72" stroke-opacity="1.00" stroke-linejoin="round"/>
<path d="M326.50,661.50 C327.87,660.78 328.54,661.12 328.50,662.50 C328.54,663.89 327.87,664.22 326.50,663.50 C325.10,662.83 325.10,662.17 326.50,661.50 Z" fill="none" stroke="rgb(255, 128, 155)" stroke-width="3.72" stroke-opacity="1.00" stroke-linejoin="round"/>
<path d="M346.50,673.50 C345.11,671.70 343.00,671.00 342.50,672.50 C342.08,673.86 343.95,674.72 346.16,674.35 C347.59,674.09 348.38,674.14 348.50,674.50 C348.91,675.71 348.58,676.71 347.50,677.50 C347.06,677.82 345.64,676.01 344.50,674.50" fill="none" stroke="rgb(255, 128, 155)" stroke-width="3.72" stroke-opacity="1.00" stroke-linejoin="round"/>
<path d="M390.50,672.50 C391.87,672.50 392.87,672.83 393.50,673.50 C393.73,673.72 389.71,673.72 389.50,673.50 C388.80,672.83 389.13,672.50 390.50,672.50 Z" fill="none" stroke="rgb(255, 128, 155)" stroke-width="3.72" stroke-opacity="1.00" stroke-linejoin="round"/>
<path d="M704.50,749.50 C705.18,750.48 706.59,750.59 706.50,749.50 C706.48,749.29 706.15,748.95 705.50,748.50" fill="none" stroke="rgb(255, 128, 155)" stroke-width="3.72" stroke-opacity="1.00" stroke-linejoin="round"/>
</g>
</svg>
